<svg xmlns="http://www.w3.org/2000/svg" width="192" height="192" viewBox="0 0 192 192">
  <defs>
    <linearGradient id="bg" x1="0%" y1="0%" x2="100%" y2="100%" gradientTransform="rotate(-35)">
      <stop offset="0%" stop-color="#7b5556"/>
      <stop offset="100%" stop-color="#f7c5c5"/>
    </linearGradient>
  </defs>
  <rect width="192" height="192" rx="42" fill="url(#bg)"/>
  <g transform="translate(36, 36) scale(5)" fill="#fff7f6">
    <path d="M12 2c3.13 0 5.87 1.7 7.35 4.23.32.55.13 1.25-.42 1.56-.55.32-1.25.13-1.56-.42A6.25 6.25 0 0012 4.3 6.3 6.3 0 006.24 8.1 6.27 6.27 0 006.7 15c1.14 1.95 3.19 3.18 5.45 3.18 1.95 0 3.8-.93 4.98-2.48.38-.5 1.1-.6 1.61-.21.5.38.6 1.1.21 1.61A8.5 8.5 0 0112.15 20.5c-3.08 0-5.95-1.64-7.5-4.3A8.57 8.57 0 014.02 8.3 8.59 8.59 0 0112 2zm0 4.2c.63 0 1.15.51 1.15 1.15v3.98l2.72 1.63a1.15 1.15 0 11-1.18 1.98l-3.28-1.97a1.15 1.15 0 01-.56-.99V7.35c0-.64.51-1.15 1.15-1.15z"/>
  </g>
</svg>
